<mxfile host="app.diagrams.net" modified="2024-05-09T06:37:15.633Z" agent="Mozilla/5.0 (Windows NT 10.0; Win64; x64) AppleWebKit/537.36 (KHTML, like Gecko) Chrome/86.0.4240.75 Safari/537.36" version="24.3.1" etag="GKxo9tNOjl5D3bo7KzIZ" type="github">
  <diagram name="第 1 页" id="x-s4xV_DUlktd-mjSwdB">
    <mxGraphModel>
      <root>
        <mxCell id="0" />
        <mxCell id="1" parent="0" />
      </root>
    </mxGraphModel>
  </diagram>
</mxfile>
